<svg width="111" height="17" viewBox="0 0 111 17" fill="none" xmlns="http://www.w3.org/2000/svg">
<g clip-path="url(#clip0_53_52)">
<mask id="mask0_53_52" style="mask-type:luminance" maskUnits="userSpaceOnUse" x="0" y="0" width="16" height="17">
<path d="M15.9201 0.304688H0.0900879V16.1347H15.9201V0.304688Z" fill="white"/>
</mask>
<g mask="url(#mask0_53_52)">
<path d="M3.66552 16.1091C3.49768 16.1091 3.30588 16.059 3.16203 15.9337C2.87433 15.7083 2.75445 15.3576 2.82637 15.007L3.76142 10.5988C3.78539 10.4486 3.73744 10.3233 3.64154 10.2231L0.380871 7.21753C0.11714 6.96707 0.0212378 6.59136 0.141115 6.26576C0.260993 5.91512 0.524723 5.66465 0.884356 5.63961L5.17598 5.21381C5.31983 5.18877 5.43971 5.11362 5.48765 4.98839L7.21389 0.855712C7.35775 0.530107 7.66943 0.304688 8.00509 0.304688C8.36472 0.304688 8.6764 0.50506 8.79628 0.855712L10.5226 4.98839C10.5704 5.11362 10.6904 5.21381 10.8342 5.21381L15.1258 5.63961C15.4855 5.66465 15.7732 5.91512 15.869 6.26576C15.9889 6.61642 15.8931 6.99211 15.6293 7.24258L12.3926 10.2482C12.2967 10.3483 12.2487 10.4986 12.2728 10.6239L13.2078 15.032C13.2797 15.3827 13.1598 15.7584 12.8721 15.9588C12.5844 16.1842 12.2248 16.1842 11.9131 16.0088L8.19689 13.7296C8.07702 13.6545 7.93316 13.6545 7.81329 13.7296L4.09708 15.9838C3.95322 16.059 3.80937 16.1091 3.66552 16.1091Z" fill="#FDC448"/>
</g>
</g>
<g clip-path="url(#clip1_53_52)">
<mask id="mask1_53_52" style="mask-type:luminance" maskUnits="userSpaceOnUse" x="23" y="0" width="17" height="17">
<path d="M39.6501 0.304688H23.8201V16.1347H39.6501V0.304688Z" fill="white"/>
</mask>
<g mask="url(#mask1_53_52)">
<path d="M27.3955 16.1091C27.2277 16.1091 27.0359 16.059 26.892 15.9337C26.6043 15.7083 26.4844 15.3576 26.5564 15.007L27.4914 10.5988C27.5154 10.4486 27.4674 10.3233 27.3715 10.2231L24.1109 7.21753C23.8471 6.96707 23.7512 6.59136 23.8711 6.26576C23.991 5.91512 24.2547 5.66465 24.6143 5.63961L28.906 5.21381C29.0498 5.18877 29.1697 5.11362 29.2176 4.98839L30.9439 0.855712C31.0877 0.530107 31.3994 0.304688 31.7351 0.304688C32.0947 0.304688 32.4064 0.50506 32.5263 0.855712L34.2525 4.98839C34.3004 5.11362 34.4203 5.21381 34.5642 5.21381L38.8558 5.63961C39.2154 5.66465 39.5031 5.91512 39.599 6.26576C39.7189 6.61642 39.6231 6.99211 39.3593 7.24258L36.1226 10.2482C36.0267 10.3483 35.9787 10.4986 36.0027 10.6239L36.9378 15.032C37.0097 15.3827 36.8898 15.7584 36.6021 15.9588C36.3144 16.1842 35.9548 16.1842 35.6431 16.0088L31.9269 13.7296C31.807 13.6545 31.6631 13.6545 31.5433 13.7296L27.8271 15.9838C27.6832 16.059 27.5393 16.1091 27.3955 16.1091Z" fill="#FDC448"/>
</g>
</g>
<g clip-path="url(#clip2_53_52)">
<mask id="mask2_53_52" style="mask-type:luminance" maskUnits="userSpaceOnUse" x="47" y="0" width="17" height="17">
<path d="M63.37 0.304688H47.54V16.1347H63.37V0.304688Z" fill="white"/>
</mask>
<g mask="url(#mask2_53_52)">
<path d="M51.1155 16.1091C50.9476 16.1091 50.7558 16.059 50.612 15.9337C50.3243 15.7083 50.2044 15.3576 50.2763 15.007L51.2114 10.5988C51.2353 10.4486 51.1874 10.3233 51.0915 10.2231L47.8308 7.21753C47.5671 6.96707 47.4712 6.59136 47.5911 6.26576C47.7109 5.91512 47.9747 5.66465 48.3343 5.63961L52.6259 5.21381C52.7698 5.18877 52.8897 5.11362 52.9376 4.98839L54.6638 0.855712C54.8077 0.530107 55.1194 0.304688 55.455 0.304688C55.8147 0.304688 56.1264 0.50506 56.2462 0.855712L57.9725 4.98839C58.0204 5.11362 58.1403 5.21381 58.2842 5.21381L62.5758 5.63961C62.9354 5.66465 63.2231 5.91512 63.319 6.26576C63.4389 6.61642 63.343 6.99211 63.0793 7.24258L59.8425 10.2482C59.7467 10.3483 59.6987 10.4986 59.7227 10.6239L60.6578 15.032C60.7297 15.3827 60.6098 15.7584 60.3221 15.9588C60.0344 16.1842 59.6747 16.1842 59.3631 16.0088L55.6468 13.7296C55.527 13.6545 55.3831 13.6545 55.2632 13.7296L51.547 15.9838C51.4032 16.059 51.2593 16.1091 51.1155 16.1091Z" fill="#FDC448"/>
</g>
</g>
<g clip-path="url(#clip3_53_52)">
<mask id="mask3_53_52" style="mask-type:luminance" maskUnits="userSpaceOnUse" x="71" y="0" width="17" height="17">
<path d="M87.1 0.304688H71.27V16.1347H87.1V0.304688Z" fill="white"/>
</mask>
<g mask="url(#mask3_53_52)">
<path d="M74.8455 16.1091C74.6776 16.1091 74.4858 16.059 74.342 15.9337C74.0543 15.7083 73.9344 15.3576 74.0063 15.007L74.9414 10.5988C74.9653 10.4486 74.9174 10.3233 74.8215 10.2231L71.5608 7.21753C71.2971 6.96707 71.2012 6.59136 71.321 6.26576C71.4409 5.91512 71.7047 5.66465 72.0643 5.63961L76.3559 5.21381C76.4998 5.18877 76.6196 5.11362 76.6676 4.98839L78.3938 0.855712C78.5377 0.530107 78.8494 0.304688 79.185 0.304688C79.5446 0.304688 79.8563 0.50506 79.9762 0.855712L81.7025 4.98839C81.7504 5.11362 81.8703 5.21381 82.0141 5.21381L86.3057 5.63961C86.6654 5.66465 86.9531 5.91512 87.049 6.26576C87.1689 6.61642 87.073 6.99211 86.8092 7.24258L83.5725 10.2482C83.4766 10.3483 83.4286 10.4986 83.4527 10.6239L84.3877 15.032C84.4597 15.3827 84.3398 15.7584 84.0521 15.9588C83.7643 16.1842 83.4047 16.1842 83.0931 16.0088L79.3768 13.7296C79.2569 13.6545 79.1131 13.6545 78.9932 13.7296L75.277 15.9838C75.1332 16.059 74.9893 16.1091 74.8455 16.1091Z" fill="#FDC448"/>
</g>
</g>
<g clip-path="url(#clip4_53_52)">
<mask id="mask4_53_52" style="mask-type:luminance" maskUnits="userSpaceOnUse" x="94" y="0" width="17" height="17">
<path d="M110.82 0.304688H94.99V16.1347H110.82V0.304688Z" fill="white"/>
</mask>
<g mask="url(#mask4_53_52)">
<path d="M98.5654 16.1091C98.3976 16.1091 98.2058 16.059 98.0619 15.9337C97.7742 15.7083 97.6543 15.3576 97.7263 15.007L98.6613 10.5988C98.6853 10.4486 98.6373 10.3233 98.5414 10.2231L95.2808 7.21753C95.017 6.96707 94.9211 6.59136 95.041 6.26576C95.1609 5.91512 95.4246 5.66465 95.7843 5.63961L100.076 5.21381C100.22 5.18877 100.34 5.11362 100.388 4.98839L102.114 0.855712C102.258 0.530107 102.569 0.304688 102.905 0.304688C103.265 0.304688 103.576 0.50506 103.696 0.855712L105.422 4.98839C105.47 5.11362 105.59 5.21381 105.734 5.21381L110.026 5.63961C110.385 5.66465 110.673 5.91512 110.769 6.26576C110.889 6.61642 110.793 6.99211 110.529 7.24258L107.292 10.2482C107.197 10.3483 107.149 10.4986 107.173 10.6239L108.108 15.032C108.18 15.3827 108.06 15.7584 107.772 15.9588C107.484 16.1842 107.125 16.1842 106.813 16.0088L103.097 13.7296C102.977 13.6545 102.833 13.6545 102.713 13.7296L98.997 15.9838C98.8531 16.059 98.7093 16.1091 98.5654 16.1091Z" fill="#FDC448"/>
</g>
</g>
<defs>
<clipPath id="clip0_53_52">
<rect width="15.83" height="15.83" fill="white" transform="translate(0.0900879 0.304688)"/>
</clipPath>
<clipPath id="clip1_53_52">
<rect width="15.83" height="15.83" fill="white" transform="translate(23.8201 0.304688)"/>
</clipPath>
<clipPath id="clip2_53_52">
<rect width="15.83" height="15.83" fill="white" transform="translate(47.54 0.304688)"/>
</clipPath>
<clipPath id="clip3_53_52">
<rect width="15.83" height="15.83" fill="white" transform="translate(71.27 0.304688)"/>
</clipPath>
<clipPath id="clip4_53_52">
<rect width="15.83" height="15.83" fill="white" transform="translate(94.99 0.304688)"/>
</clipPath>
</defs>
</svg>
